# xmcd CD database file
#
# Track frame offsets:
#	151
#	15826
#	31688
#	43917
#	59645
#	70664
#	84174
#	97865
#	111021
#	125963
#	140631
#	153049
#
# Disc length: 2225 seconds
#
# Revision: 2
# Processed by: cddbd v1.5.1PL0 Copyright (c) Steve Scherf et al.
# Submitted via: CDex 1.51
#
DISCID=9108af0c
DTITLE=Ann Pascoe - The First Hello
DYEAR=2003
DGENRE=Country
TTITLE0=The First Hello
TTITLE1=Pride Of Man
TTITLE2=Woman's Magic
TTITLE3=Twinkle, Twinkle Lucky Star
TTITLE4=Branson
TTITLE5=You Be The Potter
TTITLE6=Cold, Cold War (With Ron Hayward)
TTITLE7=(I'll Love You) All Over Again
TTITLE8=Flirting With Angels
TTITLE9=Www.Dot.Compromise
TTITLE10=I Wonder Where You Are Tonight (with Ron Hayward)
TTITLE11=I Can See Daddy
EXTD=YEAR: 2003
EXTT0=
EXTT1=
EXTT2=
EXTT3=
EXTT4=
EXTT5=
EXTT6=
EXTT7=
EXTT8=
EXTT9=
EXTT10=
EXTT11=
PLAYORDER=
